<svg width="352" height="109" viewBox="0 0 352 109" fill="none" xmlns="http://www.w3.org/2000/svg">
<g clip-path="url(#clip0_181_175)">
<path d="M314.574 88.344C314.574 82.2727 314.574 70.7739 333.01 70.7739C351.445 70.7739 351.445 82.2727 351.445 88.344V107.478H346.244V89.8159C346.244 83.6525 346.244 76.3853 333.086 76.3853C319.929 76.3853 319.929 83.6525 319.929 89.8159V107.478H314.65V88.344H314.574ZM284.052 102.878H284.587C290.783 102.878 299.428 101.039 299.428 89.6319C299.428 78.2251 290.783 76.3853 284.587 76.3853H284.052C277.932 76.3853 269.211 78.2251 269.211 89.6319C269.211 101.039 277.932 102.878 284.052 102.878ZM284.052 70.7739H284.587C294.455 70.7739 304.706 75.2814 304.706 89.6319C304.706 103.982 294.379 108.49 284.587 108.49H284.052C274.184 108.49 263.933 103.982 263.933 89.6319C263.933 75.2814 274.184 70.7739 284.052 70.7739ZM218.418 71.7858H259.42V77.3972H241.52V107.478H236.241V77.3972H218.341V71.7858H218.418ZM193.786 71.7858H199.064V101.867H222.166V107.478H193.786V71.7858ZM173.361 71.7858H178.639V107.386H173.361V71.7858ZM162.346 53.9397V31.4941L144.904 23.215H162.346V0.493408L171.066 23.307H180.858L189.655 0.493408V23.215H207.096L189.655 31.4941V53.9397L181.47 32.69H170.531L162.346 53.9397ZM105.126 89.4479C105.126 78.777 106.197 70.7739 120.043 70.7739C127.31 70.7739 130.829 73.4416 132.512 77.8571C134.195 73.4416 137.714 70.7739 144.904 70.7739C158.827 70.7739 159.821 78.777 159.821 89.4479V107.386H154.543V89.5399C154.543 79.6969 152.936 76.2933 144.751 76.2933C136.643 76.2933 135.113 79.6969 135.113 89.5399V107.386H129.834V89.5399C129.834 79.6969 128.305 76.2933 120.196 76.2933C112.011 76.2933 110.404 79.6969 110.404 89.5399V107.386H105.126V89.4479ZM87.5318 90.2758V88.344C87.5318 81.7207 87.5318 76.3853 73.6859 76.3853C59.84 76.3853 59.84 81.7207 59.84 88.344V90.2758H87.5318ZM54.5617 88.436C54.5617 79.7889 55.0207 70.7739 73.6859 70.7739C92.4275 70.7739 92.81 79.7889 92.81 88.436V107.386H87.5318V95.7952H59.84V107.386H54.5617V88.436ZM0.478516 71.7858H5.75679V86.5042H35.7435V71.7858H41.0218V107.386H35.7435V92.0236H5.75679V107.386H0.478516V71.7858Z" fill="black"/>
</g>
<defs>
<clipPath id="clip0_181_175">
<rect width="352" height="109" fill="white"/>
</clipPath>
</defs>
</svg>
