<svg width="251" height="43" viewBox="0 0 251 43" fill="none" xmlns="http://www.w3.org/2000/svg">
<path d="M0.328 41.68L1.16 35.152L6.088 35.472H10.376V35.088C7.176 33.3387 4.78667 31.1413 3.208 28.496C1.672 25.808 0.904 22.5867 0.904 18.832C0.904 15.0347 1.672 11.7493 3.208 8.976C4.744 6.16 6.92 4.00533 9.736 2.512C12.5947 0.975997 15.9227 0.207996 19.72 0.207996C23.432 0.207996 26.6533 0.933331 29.384 2.384C32.1147 3.83466 34.2053 5.92533 35.656 8.656C37.1493 11.344 37.896 14.5013 37.896 18.128C37.896 21.8827 37.1067 25.1467 35.528 27.92C33.9493 30.6933 31.5387 33.0827 28.296 35.088V35.472H32.52L37.896 35.024L38.344 35.6L37.512 42.128L32.584 42H24.648L22.024 42.128L21.704 41.808L21.768 33.744C24.328 32.0373 26.1627 30.1173 27.272 27.984C28.3813 25.8507 28.936 23.12 28.936 19.792C28.936 15.568 28.1253 12.4107 26.504 10.32C24.8827 8.22933 22.4293 7.184 19.144 7.184C15.9867 7.184 13.6187 8.18667 12.04 10.192C10.4613 12.1973 9.672 15.2693 9.672 19.408C9.672 22.7787 10.2267 25.5733 11.336 27.792C12.4453 29.968 14.3013 31.952 16.904 33.744L17.032 41.808L16.584 42.128L14.024 42H6.152L0.776 42.256L0.328 41.68ZM72.7495 0.207996C78.5522 0.207996 83.0108 1.97866 86.1255 5.52C89.2828 9.01866 90.8615 14.0107 90.8615 20.496C90.8615 27.5787 89.1548 33.04 85.7415 36.88C82.3282 40.72 77.5068 42.64 71.2775 42.64C65.5175 42.64 61.0588 40.848 57.9015 37.264C54.7868 33.6373 53.2295 28.5173 53.2295 21.904C53.2295 14.9493 54.9148 9.59467 58.2855 5.84C61.6988 2.08533 66.5202 0.207996 72.7495 0.207996ZM71.9815 7.184C68.5682 7.184 66.0935 8.25067 64.5575 10.384C63.0215 12.5173 62.2535 15.9947 62.2535 20.816C62.2535 26.32 63.0002 30.2453 64.4935 32.592C66.0295 34.9387 68.5468 36.112 72.0455 36.112C75.4588 36.112 77.9335 35.0453 79.4695 32.912C81.0055 30.736 81.7735 27.1947 81.7735 22.288C81.7735 16.8693 81.0055 13.008 79.4695 10.704C77.9762 8.35733 75.4802 7.184 71.9815 7.184ZM140.499 42H132.819L132.179 29.52L130.707 13.648H130.067L120.851 37.648H114.131L105.747 13.648H105.171L103.571 28.688L102.675 42H95.3785L99.5385 0.783997H109.523L111.187 6.864L117.715 26.384H118.291L125.139 6.864L126.995 0.783997H136.787L140.499 42ZM174.475 34.832L174.987 35.536L174.411 42H148.555L149.003 29.712L148.555 0.783997H174.667L175.179 1.488L174.539 7.952L164.683 7.632L157.259 7.696L157.067 17.616L164.171 17.744L170.891 17.552L171.403 18.192L170.827 24.656L163.531 24.464L156.939 24.528L156.875 28.944L157.067 35.152L164.299 35.216L174.475 34.832ZM198.609 0.271999C203.089 0.271999 207.121 1.104 210.705 2.768L208.849 10.576L208.017 10.704C205.926 9.50933 204.049 8.656 202.385 8.144C200.763 7.58933 199.014 7.312 197.137 7.312C193.339 7.312 190.566 8.44266 188.817 10.704C187.067 12.9653 186.193 16.6773 186.193 21.84C186.193 25.2533 186.555 27.9627 187.281 29.968C188.049 31.9733 189.222 33.4453 190.801 34.384C192.379 35.28 194.47 35.728 197.073 35.728C197.969 35.728 198.801 35.664 199.569 35.536C200.379 35.408 201.361 35.1733 202.513 34.832L202.641 31.312L202.513 24.784L210.513 24.208L210.321 29.968L210.513 40.016C205.393 41.7227 200.678 42.576 196.369 42.576C189.969 42.576 185.147 40.8267 181.905 37.328C178.705 33.8293 177.105 28.816 177.105 22.288C177.105 15.1627 178.961 9.72267 182.673 5.968C186.427 2.17067 191.739 0.271999 198.609 0.271999ZM250.376 42H241.544L240.52 36.624L239.432 32.784L231.368 32.592L224.264 32.784L223.176 36.176L222.088 42H213.512L227.464 0.783997H237.768L250.376 42ZM237.576 26.064L232.712 8.912H232.136L226.504 26.064L232.008 26.192L237.576 26.064Z" fill="#C6001F"/>
</svg>
