<svg width="60" height="60" viewBox="0 0 60 60" fill="none" xmlns="http://www.w3.org/2000/svg">
<path fill-rule="evenodd" clip-rule="evenodd" d="M9.50049 25.4999C9.50049 16.6633 16.6639 9.49988 25.5005 9.49988C34.337 9.49988 41.5005 16.6633 41.5005 25.4999C41.5005 34.3364 34.337 41.4999 25.5005 41.4999C16.6639 41.4999 9.50049 34.3364 9.50049 25.4999ZM25.5005 1.49988C12.2457 1.49988 1.50049 12.245 1.50049 25.4999C1.50049 38.7547 12.2457 49.4999 25.5005 49.4999C30.1355 49.4999 34.4636 48.186 38.1327 45.9103L49.1114 56.889C51.2593 59.0368 54.7417 59.0368 56.8896 56.889C59.0375 54.7411 59.0375 51.2587 56.8896 49.1108L45.9109 38.1321C48.1866 34.463 49.5005 30.1349 49.5005 25.4999C49.5005 12.245 38.7553 1.49988 25.5005 1.49988Z" fill="black"/>
</svg>
